<svg width="120" height="120" viewBox="0 0 120 120" fill="none" xmlns="http://www.w3.org/2000/svg">
  <g id="Umbrella">
    <g id="colors/@aqua">
      <mask id="mask0" mask-type="alpha" maskUnits="userSpaceOnUse" x="0" y="7" width="120" height="107">
        <path id="Mask" fill-rule="evenodd" clip-rule="evenodd"
              d="M116.587 75.2024C117.369 74.4233 118.632 74.4233 119.414 75.2024C120.195 75.9814 120.195 77.2427 119.414 78.0297L116.587 80.847C107.148 90.2554 94.5983 95.4358 81.249 95.4358C68.6634 95.4358 56.7914 90.8273 47.564 82.4151C47.5323 82.3916 47.4983 82.3727 47.4644 82.3539C47.4149 82.3264 47.3657 82.2991 47.3241 82.2577L44.8234 84.7503L44.4976 85.075L32.4356 97.0955L35.2622 99.9129L25.3672 109.776C22.7265 112.406 19.2143 113.856 15.4722 113.856C11.7321 113.856 8.21586 112.406 5.57719 109.776C2.09494 106.303 0.695649 101.184 1.92903 96.4141C2.48075 94.2882 4.07195 92.6723 6.19288 92.0945C8.28782 91.5246 10.4587 92.0965 11.998 93.6306C13.5532 95.1808 14.1509 97.3665 13.5612 99.3331C13.3493 100.04 13.5392 100.802 14.0609 101.322C14.8405 102.101 16.1079 102.097 16.8875 101.322L26.7825 91.4589L29.6091 94.2762L31.812 92.0805L30.3987 90.6718C29.6171 89.8928 29.6171 88.6336 30.3987 87.8545C31.1783 87.0755 32.4436 87.0755 33.2252 87.8545L34.6405 89.2632L41.9988 81.9289L44.4996 79.4344C44.4587 79.3937 44.4316 79.3458 44.4043 79.2977C44.3862 79.2656 44.368 79.2335 44.3456 79.2032C35.9019 70.0061 31.2762 58.1708 31.2762 45.6223C31.2762 32.3167 36.4736 19.81 45.9128 10.4016L48.7414 7.58429C49.523 6.80524 50.7864 6.80524 51.568 7.58429C52.3496 8.36334 52.3496 9.62257 51.568 10.4016L49.2851 12.675C49.0653 16.7835 50.3526 20.4616 52.9813 23.0816C55.61 25.6997 59.3061 26.9928 63.42 26.7637L65.7009 24.4903C66.4825 23.7113 67.7458 23.7113 68.5275 24.4903C69.3091 25.2694 69.3091 26.5286 68.5275 27.3076L66.2466 29.581C66.0267 33.6895 67.3141 37.3676 69.9427 39.9877C72.7173 42.7512 76.6753 44.0523 81.0631 43.6378C81.081 43.6358 81.0971 43.6391 81.1134 43.6426L81.1135 43.6426L81.1135 43.6426L81.1136 43.6426C81.1228 43.6445 81.1321 43.6465 81.1417 43.6474C81.1452 43.6477 81.1487 43.6479 81.1523 43.648L81.1591 43.6478C81.221 43.6458 81.279 43.6458 81.341 43.6478C81.3571 43.6488 81.3719 43.6456 81.3867 43.6426C81.4029 43.6391 81.4191 43.6358 81.4369 43.6378C81.4774 43.6412 81.5135 43.6553 81.5497 43.6695C81.5779 43.6805 81.6062 43.6915 81.6368 43.6976C81.6475 43.6997 81.6581 43.7016 81.6687 43.7035C81.6859 43.7065 81.7031 43.7093 81.7202 43.7122L81.7203 43.7122L81.7204 43.7122L81.7206 43.7122L81.7207 43.7122L81.7209 43.7123L81.721 43.7123C81.7965 43.7248 81.8712 43.7372 81.9427 43.7634C81.9782 43.7756 82.0109 43.7925 82.0441 43.8097L82.0443 43.8097L82.0708 43.8234L82.0906 43.8331C82.1683 43.8683 82.2366 43.9128 82.3066 43.9584L82.3067 43.9585L82.3345 43.9766L82.3498 43.9864C82.4402 44.0445 82.5269 44.1003 82.6064 44.1738C82.6118 44.1786 82.6176 44.1824 82.6236 44.1857L82.6333 44.191C82.644 44.1965 82.6547 44.2021 82.6643 44.2117C82.6756 44.2239 82.6832 44.2378 82.6906 44.2513C82.6977 44.2642 82.7046 44.2767 82.7143 44.2874C82.7657 44.3436 82.8074 44.4052 82.8499 44.4678L82.8762 44.5066L82.882 44.5149C82.9439 44.6036 83.0036 44.689 83.0501 44.7895C83.0761 44.8433 83.1001 44.8931 83.1201 44.9489C83.1418 45.0098 83.1525 45.0725 83.1633 45.1364C83.1685 45.1667 83.1736 45.1971 83.1801 45.2278C83.1867 45.2577 83.1975 45.2854 83.2083 45.3132L83.2083 45.3132C83.2234 45.3521 83.2385 45.3909 83.242 45.435C83.243 45.4498 83.2401 45.4641 83.2371 45.4786C83.2357 45.4858 83.2342 45.493 83.2332 45.5004L83.2322 45.509C83.2318 45.5141 83.2317 45.5194 83.232 45.5247C83.236 45.5885 83.236 45.6502 83.232 45.714C83.2317 45.719 83.2318 45.7239 83.2322 45.7288C83.2327 45.7348 83.2337 45.7407 83.2348 45.7467L83.2369 45.7575C83.24 45.7724 83.243 45.7875 83.242 45.8036C82.8302 50.1871 84.1316 54.1242 86.9062 56.8897C89.5349 59.5078 93.227 60.7949 97.3449 60.5718L99.6258 58.2964C100.407 57.5173 101.673 57.5173 102.454 58.2964C103.234 59.0734 103.234 60.3347 102.454 61.1137L100.171 63.3891C99.9516 67.4975 101.239 71.1736 103.866 73.7937C106.494 76.4118 110.188 77.7049 114.306 77.4758L116.587 75.2024ZM15.4742 109.863C18.1488 109.863 20.6576 108.827 22.5426 106.95L29.6071 99.9049L26.7785 97.0876L19.7101 104.133C17.3732 106.462 13.5692 106.464 11.2303 104.133C9.66913 102.575 9.09342 100.295 9.73109 98.1814C9.89701 97.6315 9.67512 96.9481 9.16938 96.442C8.70361 95.9778 8.18987 95.8602 7.79007 95.8602C7.56019 95.8602 7.36828 95.8981 7.24635 95.9319C6.52871 96.1252 5.98898 96.6771 5.80107 97.4024C4.91952 100.811 5.91702 104.47 8.40576 106.95C10.2908 108.827 12.8015 109.863 15.4742 109.863ZM84.0776 59.707C86.5843 62.2056 89.7927 63.7776 93.3789 64.3475C78.0367 78.0895 60.5015 83.9672 50.6405 78.9422L79.404 50.2747C79.9557 53.913 81.5329 57.1706 84.0776 59.707ZM76.5734 47.4614C72.9232 46.9115 69.6589 45.3334 67.1162 42.799C64.6054 40.2985 63.0382 37.0966 62.4665 33.5181C48.6715 48.8123 42.7744 66.2941 47.8139 76.1249L76.5734 47.4614ZM45.531 16.7695C46.1247 20.2822 47.682 23.4283 50.1527 25.893C52.7314 28.4633 56.0517 30.0493 59.7639 30.5753C47.7639 43.7434 41.4371 58.3502 42.1068 69.5896C37.683 62.4427 35.2722 54.2218 35.2722 45.6144C35.2742 34.9826 38.8904 24.9087 45.531 16.7695ZM57.2525 84.6629L57.2471 84.6626C64.4055 89.05 72.6354 91.4409 81.251 91.4429C91.9117 91.4429 102.015 87.8406 110.176 81.2296C106.654 80.6378 103.508 79.0717 101.039 76.6111C98.4604 74.0408 96.8732 70.7313 96.3434 67.0333C83.7618 78.4202 69.8548 84.7224 58.8183 84.7224C58.2865 84.7224 57.7705 84.6927 57.2525 84.6629ZM7.99597 45.5944H1.99899C0.895549 45.5944 0 46.4851 0 47.5869C0 48.6887 0.895549 49.5794 1.99899 49.5794H7.99597C14.8145 49.5794 20.1558 44.4209 20.1558 37.8338V35.676C20.1558 30.5653 16.4777 26.2915 11.6022 25.7356C10.2668 25.5782 8.9355 25.6957 7.63815 26.0783C2.33882 27.6304 -0.705644 33.1914 0.85357 38.4734C1.16541 39.5294 2.27685 40.1431 3.33632 39.8223C4.39578 39.5135 5.00148 38.4056 4.68964 37.3496C3.75411 34.1757 5.58119 30.8323 8.76558 29.8998C9.54519 29.6707 10.3428 29.603 11.1464 29.6926C13.957 30.0134 16.1579 32.6415 16.1579 35.676V37.8338C16.1579 42.2591 12.6496 45.5944 7.99597 45.5944ZM17.9909 65.519H1.99899C0.895549 65.519 0 64.6284 0 63.5266C0 62.4247 0.895549 61.5341 1.99899 61.5341H17.9909C19.0944 61.5341 19.9899 62.4247 19.9899 63.5266C19.9899 64.6284 19.0944 65.519 17.9909 65.519ZM1.99899 57.593H7.95199C17.4072 57.593 27.9859 49.9061 27.9859 39.6171C27.9859 38.5152 27.0903 37.6246 25.9869 37.6246C24.8835 37.6246 23.9879 38.5152 23.9879 39.6171C23.9879 47.4972 15.3663 53.6081 7.95199 53.6081H1.99899C0.895549 53.6081 0 54.4987 0 55.6006C0 56.7024 0.895549 57.593 1.99899 57.593ZM9.95098 71.4964C9.95098 72.5982 9.05543 73.4889 7.95199 73.4889H1.99899C0.895549 73.4889 0 72.5982 0 71.4964C0 70.3946 0.895549 69.504 1.99899 69.504H7.95199C9.05543 69.504 9.95098 70.3946 9.95098 71.4964Z"
              fill="white"/>
      </mask>
      <g mask="url(#mask0)">
        <g id="colors/@aqua_2">
          <rect id="Rectangle Copy 9" x="-8.034" y="-12.3765" width="143" height="145" fill="#00C5CA"/>
        </g>
      </g>
    </g>
  </g>
</svg>
